# xmcd
#
# Track frame offsets: 
#        150
#        14402
#        30341
#        44342
#        57792
#        70812
#        85284
#        97985
#        112337
#        126663
#
# Disc length: 1919 seconds
#
# Revision: 0
# Processed by: cddbd v1.5.2PL0 Copyright (c) Steve Scherf et al.
# Submitted via: ExactAudioCopy v0.99pb5
#
DISCID=86077d0a
DTITLE=T. G. Sheppard - Smooth Sailin'
DYEAR=2006
DGENRE=Country
TTITLE0=Do You Wanna Go To Heaven
TTITLE1=If I Never Saw The Light Of Day Again
TTITLE2=I Feel Like Loving You Again
TTITLE3=I Could Never Dream The Way You Feel
TTITLE4=How Far Our Love Goes
TTITLE5=Smooth Sailin'
TTITLE6=My Mind's Already Home
TTITLE7=Do It Again
TTITLE8=Don't Touch Me
TTITLE9=Let The Little Bird Fly
EXTD=
EXTT0=
EXTT1=
EXTT2=
EXTT3=
EXTT4=
EXTT5=
EXTT6=
EXTT7=
EXTT8=
EXTT9=
PLAYORDER=
